<?xml version="1.0" standalone="no"?>
<!DOCTYPE svg PUBLIC "-//W3C//DTD SVG 20010904//EN"
 "http://www.w3.org/TR/2001/REC-SVG-20010904/DTD/svg10.dtd">
<svg version="1.0" xmlns="http://www.w3.org/2000/svg"
 width="512.000000pt" height="512.000000pt" viewBox="0 0 512.000000 512.000000"
 preserveAspectRatio="xMidYMid meet">
<metadata>
Created by potrace 1.16, written by Peter Selinger 2001-2019
</metadata>
<g transform="translate(0.000000,512.000000) scale(0.100000,-0.100000)"
fill="#000000" stroke="none">
<path d="M1485 4305 c-250 -55 -417 -177 -506 -370 -54 -119 -59 -174 -59
-634 0 -408 -1 -421 -20 -431 -39 -21 -43 -65 -38 -533 3 -385 6 -448 19 -464
10 -12 20 -57 27 -130 18 -181 80 -323 193 -448 130 -142 283 -214 484 -227
l40 -3 5 -118 c5 -121 11 -136 50 -137 9 0 111 72 228 160 l212 160 607 0
c656 0 721 4 857 54 100 36 171 83 250 167 84 89 138 185 166 295 19 73 20
113 20 799 l0 722 -22 20 c-54 48 -51 95 -47 -718 4 -708 3 -758 -14 -819 -26
-92 -71 -170 -138 -244 -69 -75 -135 -120 -227 -153 l-67 -24 -781 1 c-851 1
-846 0 -944 57 -25 15 -75 55 -112 91 l-67 64 -78 9 c-194 22 -374 188 -428
395 -12 47 -15 132 -15 460 0 258 -4 413 -11 431 -5 15 -38 56 -72 91 l-62 63
0 442 c0 486 0 489 65 617 73 145 222 263 385 305 89 23 2254 23 2354 -1 223
-51 403 -231 461 -460 19 -73 20 -113 20 -666 0 -648 3 -613 -64 -677 l-36
-35 0 -287 c0 -248 2 -290 16 -303 20 -21 37 -20 57 2 15 16 17 52 17 294 0
228 2 278 14 288 8 6 22 33 31 60 14 42 16 121 13 672 l-3 623 -31 88 c-40
111 -84 184 -156 257 -109 110 -221 168 -374 195 -74 13 -240 15 -1123 14
-817 0 -1049 -3 -1096 -14z m-505 -1553 l40 -39 0 -414 c0 -444 4 -492 53
-599 57 -128 187 -256 307 -301 30 -11 92 -25 138 -30 82 -9 85 -11 149 -64
115 -99 192 -125 360 -125 l114 0 -33 -28 c-104 -90 -421 -323 -436 -320 -14
3 -18 22 -26 123 -5 70 -13 123 -20 127 -6 4 -40 8 -76 8 -216 0 -447 161
-560 389 -69 138 -70 153 -70 763 0 342 4 548 10 548 5 0 27 -17 50 -38z"/>
<path d="M1504 4026 c-10 -26 1 -51 23 -54 12 -2 46 8 75 22 l54 25 949 1
c935 1 951 1 1010 -20 87 -30 190 -104 241 -172 59 -80 82 -149 90 -263 8
-105 24 -129 24 -35 0 225 -139 416 -357 489 -62 21 -75 21 -1083 21 -880 0
-1021 -2 -1026 -14z"/>
<path d="M1653 3775 c-151 -33 -330 -167 -400 -300 -62 -118 -62 -117 -64
-710 -2 -736 8 -895 54 -895 5 0 3 8 -6 18 -12 13 -16 44 -17 152 -1 74 -1
143 -1 153 1 13 10 17 46 17 l45 0 0 503 c0 547 4 591 56 688 58 105 199 208
309 225 49 7 71 24 33 24 -46 0 -144 -31 -197 -63 -99 -60 -185 -176 -210
-288 -7 -27 -11 -249 -11 -561 l0 -518 -22 0 c-13 0 -28 4 -34 8 -16 10 -29
993 -15 1076 33 191 191 360 396 423 56 17 113 18 895 18 909 0 883 1 1010
-58 54 -25 93 -58 228 -190 l162 -161 -30 -12 c-35 -15 -36 -21 -12 -54 16
-23 17 -68 20 -530 4 -564 -9 -941 -34 -1035 -27 -104 -73 -184 -149 -260
-111 -112 -204 -152 -390 -165 l-100 -7 104 0 c178 0 273 38 394 158 60 60 85
94 113 154 66 144 67 148 68 955 1 399 -1 734 -4 745 -4 16 1 21 23 23 86 10
30 103 -169 286 -129 118 -198 159 -303 182 -95 20 -1695 19 -1788 -1z"/>
<path d="M1770 3600 c9 -6 313 -10 807 -10 748 0 795 -1 852 -19 121 -38 224
-128 281 -246 32 -67 45 -117 55 -217 8 -80 25 -91 25 -15 -1 221 -152 436
-351 498 -58 18 -104 19 -872 19 -528 0 -807 -4 -797 -10z"/>
<path d="M2375 3301 c-78 -21 -286 -145 -347 -208 -61 -62 -81 -121 -86 -244
-5 -139 12 -203 72 -268 38 -40 47 -60 71 -146 33 -122 63 -183 122 -246 57
-61 126 -106 206 -132 57 -19 84 -20 312 -19 l249 1 66 -54 c162 -132 347
-202 383 -143 8 12 2 30 -30 80 -48 75 -163 285 -163 297 0 5 15 41 34 81 48
100 58 174 54 412 -3 198 -4 204 -31 263 -36 78 -95 137 -168 170 -47 21 -84
28 -181 36 -68 5 -133 11 -145 14 -26 6 -30 -11 -10 -40 12 -15 35 -19 143
-26 82 -4 143 -13 167 -23 57 -25 122 -90 148 -149 22 -48 24 -67 27 -252 5
-261 -13 -353 -87 -445 -16 -20 -25 -42 -22 -50 3 -8 31 -58 62 -110 69 -115
88 -165 71 -182 -17 -17 -141 48 -227 119 l-70 58 -235 -3 c-140 -2 -257 1
-290 8 -162 31 -275 141 -325 315 -10 33 -20 65 -22 72 -3 7 9 6 39 -4 76 -27
147 -13 275 53 207 107 267 162 299 271 24 81 16 249 -15 319 -27 63 -90 126
-153 154 -52 23 -147 33 -193 21z m180 -65 c103 -48 155 -141 155 -281 0 -189
-48 -251 -299 -381 -149 -78 -256 -70 -352 26 -59 59 -79 120 -79 236 0 105
25 177 81 233 38 37 209 144 282 176 52 23 154 19 212 -9z"/>
<path d="M1398 3183 c-2 -4 -1 -294 2 -643 l5 -635 27 -57 c34 -73 103 -142
176 -176 l57 -27 661 3 661 4 55 -31 c48 -27 64 -31 134 -31 150 0 294 61 405
170 71 70 110 136 134 227 20 78 23 1074 3 1091 -10 8 -12 -92 -10 -496 1
-326 -1 -525 -8 -558 -38 -180 -204 -345 -390 -385 -75 -16 -132 -5 -216 41
l-73 40 -334 0 -334 0 -39 -31 -39 -31 -300 4 -300 3 -56 26 c-72 34 -134 96
-168 168 l-26 56 -3 630 c-2 549 -7 675 -24 638z"/>
<path d="M3800 2732 c0 -158 3 -233 11 -238 8 -5 9 57 4 227 -4 129 -9 236
-11 238 -2 2 -4 -100 -4 -227z"/>
<path d="M2117 1403 c-13 -12 -7 -41 9 -47 9 -3 183 -6 388 -6 302 0 376 3
391 14 16 12 17 16 6 30 -12 14 -57 16 -401 16 -212 0 -390 -3 -393 -7z"/>
</g>
</svg>